<svg width="2t" height="25" viewBox="0 0 29 25" fill="none" xmlns="http://www.w3.org/2000/svg">
<path fill-rule="evenodd" clip-rule="evenodd" d="M14.5 5.61459C13.0754 5.61486 11.6796 5.96628 10.4727 6.62859C9.26572 7.29089 8.29641 8.23728 7.67577 9.35935C7.05514 10.4814 6.80828 11.7338 6.9635 12.9729C7.11871 14.2121 7.6697 15.3879 8.55336 16.3657C9.43701 17.3435 10.6176 18.0837 11.9598 18.5016C13.3021 18.9194 14.7517 18.998 16.1426 18.7282C17.5335 18.4585 18.8094 17.8514 19.8242 16.9765C20.839 16.1015 21.5516 14.9942 21.8803 13.7813H15.6667C15.2025 13.7813 14.7574 13.6199 14.4292 13.3328C14.101 13.0456 13.9167 12.6561 13.9167 12.25C13.9167 11.8439 14.101 11.4544 14.4292 11.1672C14.7574 10.8801 15.2025 10.7188 15.6667 10.7188H23.8333C24.2975 10.7188 24.7426 10.8801 25.0708 11.1672C25.399 11.4544 25.5833 11.8439 25.5833 12.25C25.5833 14.4925 24.6951 16.6657 23.0699 18.3997C21.4447 20.1337 19.183 21.3212 16.6697 21.7603C14.1564 22.1993 11.5469 21.8626 9.28543 20.8075C7.02393 19.7524 5.25021 18.0442 4.26618 15.9735C3.28216 13.9029 3.14865 11.5979 3.8884 9.45078C4.62815 7.30371 6.19542 5.44731 8.32343 4.19759C10.4514 2.94787 13.0087 2.38207 15.5598 2.5965C18.1109 2.81093 20.4983 3.79234 22.3155 5.37367C22.4784 5.5155 22.6079 5.68403 22.6964 5.86962C22.7849 6.05522 22.8307 6.25425 22.8313 6.45535C22.8319 6.65646 22.7872 6.8557 22.6998 7.04169C22.6124 7.22769 22.484 7.3968 22.3219 7.53937C22.1598 7.68194 21.9672 7.79518 21.7551 7.87262C21.543 7.95006 21.3155 7.99018 21.0857 7.9907C20.6215 7.99176 20.1759 7.83143 19.8468 7.54498C19.1442 6.93166 18.3104 6.4455 17.3929 6.11427C16.4755 5.78305 15.4925 5.61325 14.5 5.61459Z" fill="#F8F8F8"/>
</svg>
