<svg width="25" height="25" viewBox="0 0 29 28" fill="none" xmlns="http://www.w3.org/2000/svg">
<path d="M14.5009 0.000875043C6.76627 0.000875043 0.5 6.27239 0.5 14.0017C0.5 20.191 4.51125 25.437 10.0705 27.2877C10.7731 27.4198 11.0269 26.9867 11.0269 26.6122C11.0269 26.2796 11.019 25.4002 11.0138 24.2329C7.11716 25.0764 6.29636 22.3506 6.29636 22.3506C5.65845 20.737 4.73789 20.3039 4.73789 20.3039C3.47081 19.4385 4.83852 19.4568 4.83852 19.4568C6.24211 19.5522 6.98066 20.8963 6.98066 20.8963C8.22936 23.0384 10.2569 22.4189 11.0593 22.0584C11.1818 21.1562 11.5467 20.5358 11.944 20.1901C8.83577 19.8392 5.56744 18.636 5.56744 13.2711C5.56744 11.7389 6.10998 10.491 7.00691 9.51097C6.85202 9.16007 6.37774 7.73373 7.13029 5.80511C7.13029 5.80511 8.30199 5.43146 10.9805 7.24108C12.1215 6.93075 13.2983 6.77159 14.4807 6.76767C15.6708 6.77555 16.86 6.93131 17.981 7.24108C20.6438 5.43146 21.8146 5.80511 21.8146 5.80511C22.5663 7.73373 22.092 9.1592 21.9555 9.51097C22.8436 10.491 23.3862 11.7397 23.3862 13.2711C23.3862 18.6483 20.1135 19.834 17.0018 20.1761C17.4883 20.5953 17.9442 21.4572 17.9442 22.7654C17.9442 24.638 17.9267 26.1466 17.9267 26.6025C17.9267 26.9666 18.1717 27.4041 18.8928 27.2632C24.4931 25.4317 28.5 20.1814 28.5 14.0009C28.5 6.27152 22.2337 0 14.4991 0L14.5009 0.000875043Z" fill="white"/>
</svg>
